<svg width="70" height="70" viewBox="0 0 70 70" fill="none" xmlns="http://www.w3.org/2000/svg">
<g clip-path="url(#clip0_6_1773)">
<path d="M52.7873 40.2712C52.7873 27.5483 42.5008 17.2346 29.8116 17.2346C17.1224 17.2346 6.83594 27.5483 6.83594 40.2712C6.83594 52.994 17.1224 63.3078 29.8116 63.3078C42.5008 63.3078 52.7873 52.994 52.7873 40.2712Z" fill="#89C8FD"/>
<path d="M29.8115 17.2346C28.6323 17.2346 27.4734 17.3238 26.3423 17.4958C37.385 19.1727 45.8482 28.7307 45.8482 40.2712C45.8482 51.8116 37.385 61.3697 26.3423 63.0466C27.4734 63.2186 28.6323 63.3078 29.8115 63.3078C42.5007 63.3078 52.7872 52.994 52.7872 40.2712C52.7872 27.5483 42.5007 17.2346 29.8115 17.2346Z" fill="#60B6FF"/>
<path d="M26.8253 26.1875C23.2861 28.4054 20.6313 31.9537 22.6223 35.9463C24.6132 39.9384 29.0374 38.3859 33.1298 37.8315C37.2223 37.2772 34.1253 49.9194 36.5585 53.0244C38.9917 56.1294 45.849 49.9194 45.1857 45.9268C44.203 40.0158 43.8585 37.9421 51.8219 33.7284L51.8432 33.7204C49.159 24.6312 41.0339 17.8872 31.2505 17.281L31.2494 17.3157C31.2494 17.3157 30.3645 23.9695 26.8253 26.1875Z" fill="#BAEB6C"/>
<path d="M44.2065 22.3176C44.2078 22.3185 44.2091 22.3198 44.2104 22.3206C44.2091 22.3198 44.2078 22.3189 44.2065 22.3176Z" fill="#BAEB6C"/>
<path d="M47.0166 25.0051C47.0166 25.0056 47.017 25.006 47.0175 25.006C47.017 25.0056 47.017 25.0056 47.0166 25.0051Z" fill="#BAEB6C"/>
<path d="M14.5483 50.6953C13.4855 49.0744 16.4287 45.2618 17.092 42.3784C17.7558 39.495 13.7739 39.7167 12.5573 38.7185C11.3407 37.7204 9.6814 33.3956 8.46481 32.3974L8.27042 32.2441C7.34329 34.7435 6.83594 37.448 6.83594 40.271C6.83594 47.8856 10.5209 54.6361 16.2001 58.8301L16.207 58.3473C16.207 58.3473 17.092 54.5768 14.5483 50.6953Z" fill="#BAEB6C"/>
<path d="M45.1859 45.9268C45.181 45.898 45.1762 45.8697 45.1714 45.8408C44.7319 47.6166 44.0868 49.3111 43.2627 50.8973C44.5695 49.3549 45.4427 47.4745 45.1859 45.9268Z" fill="#BAEB6C"/>
<path d="M31.2502 17.281L31.2492 17.3157C31.2492 17.3157 31.1755 17.8711 30.9854 18.7133C39.0421 21.7628 44.9408 29.2215 45.7526 38.1552C46.7678 36.7666 48.6247 35.4197 51.8216 33.7284L51.843 33.7204C49.1588 24.6312 41.0336 17.8872 31.2502 17.281Z" fill="#96D629"/>
<path d="M29.7802 70C28.153 70 26.5139 69.8665 24.876 69.5957C17.0462 68.3027 10.1883 64.0383 5.56606 57.5879C0.943788 51.1376 -0.889632 43.2731 0.403856 35.4438C0.497316 34.8766 1.03458 34.4932 1.60014 34.5866C2.16731 34.6801 2.5513 35.2157 2.45731 35.7829C1.25514 43.0637 2.95986 50.3771 7.25849 56.3756C11.5571 62.3742 17.9338 66.3395 25.2156 67.5422C40.2478 70.0256 54.4943 59.816 56.9771 44.786C58.1793 37.5052 56.4746 30.1919 52.1759 24.1933C47.8778 18.1948 41.5007 14.2294 34.2193 13.0267C33.6521 12.9332 33.2682 12.3976 33.3616 11.8304C33.4556 11.2632 33.9923 10.8798 34.5579 10.9733C42.3883 12.2662 49.2461 16.5307 53.8678 22.981C58.4901 29.4314 60.3235 37.2959 59.0306 45.1252C57.7376 52.9545 53.4726 59.8118 47.0217 64.4335C41.9199 68.0886 35.9342 70 29.7802 70Z" fill="#09A66D"/>
<path d="M23.4616 25.1407C12.351 23.2555 5.4585 9.26641 5.4585 9.26641C5.4585 9.26641 16.5802 -1.66628 27.6908 0.218405C38.8013 2.10309 45.6939 16.0922 45.6939 16.0922C45.6939 16.0922 34.5721 27.0254 23.4616 25.1407Z" fill="#49CB5C"/>
<path d="M27.6908 0.218341C25.569 -0.141614 23.4477 -0.0332001 21.4028 0.376422C32.0493 2.76686 38.6166 16.0921 38.6166 16.0921C38.6166 16.0921 31.3363 23.248 22.6718 24.9826C22.9329 25.0413 23.1957 25.0953 23.4616 25.1407C34.5722 27.0254 45.6939 16.0921 45.6939 16.0921C45.6939 16.0921 38.8014 2.10303 27.6908 0.218341Z" fill="#07B128"/>
<path d="M45.0658 14.9306L34.2004 13.0977L24.0512 0.0292969C23.2415 0.076828 22.4394 0.180435 21.6479 0.328903L31.167 12.5855L22.974 11.2034L15.9832 2.15858C15.3273 2.45445 14.6897 2.76848 14.075 3.09425L19.948 10.6928L6.40057 8.40706C5.79228 8.93845 5.4585 9.26636 5.4585 9.26636C5.4585 9.26636 5.68173 9.7187 6.11005 10.4691L19.5838 12.742L12.1113 18.52C12.5924 19.0156 13.0971 19.5053 13.6248 19.9806L22.3769 13.2136L31.0505 14.6769L19.2543 23.8034C19.9865 24.1452 20.7432 24.4411 21.5235 24.6793L33.8437 15.1485L44.716 16.9824C45.3462 16.4329 45.6939 16.0921 45.6939 16.0921C45.6939 16.0921 45.4786 15.6564 45.0658 14.9306Z" fill="#09A66D"/>
<path d="M53.2508 11.562C56.2313 4.50919 66.5584 2.13477 66.5584 2.13477C66.5584 2.13477 72.0533 11.1951 69.0728 18.2478C66.0927 25.3006 55.7651 27.675 55.7651 27.675C55.7651 27.675 50.2702 18.6147 53.2508 11.562Z" fill="#49CB5C"/>
<path d="M66.5587 2.13477C66.5587 2.13477 64.2104 2.67523 61.4301 4.00504C62.8566 7.02673 65.1178 13.1593 62.9671 18.2478C61.4082 21.9371 57.8386 24.3462 54.7886 25.8047C55.3392 26.9711 55.7659 27.675 55.7659 27.675C55.7659 27.675 66.093 25.3006 69.0735 18.2478C72.0536 11.1951 66.5587 2.13477 66.5587 2.13477Z" fill="#07B128"/>
<path d="M69.9169 12.4309L61.9755 15.7623L67.1895 3.29688C66.8162 2.55988 66.5582 2.13477 66.5582 2.13477C66.5582 2.13477 66.0669 2.24799 65.2674 2.49792L59.8788 15.3805L56.5372 7.15865C55.9711 7.65799 55.437 8.20059 54.9526 8.78859L58.7391 18.1052L55.1823 26.6085C55.5294 27.2862 55.7649 27.675 55.7649 27.675C55.7649 27.675 56.299 27.5522 57.1578 27.2798L60.8305 18.4999L69.9137 14.6899C69.9741 13.9353 69.9709 13.1785 69.9169 12.4309Z" fill="#09A66D"/>
</g>
<defs>
<clipPath id="clip0_6_1773">
<rect width="70" height="70" fill="white"/>
</clipPath>
</defs>
</svg>
