<svg width="81" height="81" viewBox="0 0 81 81" fill="none" xmlns="http://www.w3.org/2000/svg">
<circle cx="40.4697" cy="40.8934" r="40" fill="white"/>
<g clip-path="url(#clip0_6_1941)">
<path d="M35.1558 48.7151H45.547C45.8706 48.7151 46.1329 48.4527 46.1329 48.1291C46.1329 47.8055 45.8706 47.5432 45.547 47.5432H35.1558C34.8322 47.5432 34.5699 47.8055 34.5699 48.1291C34.5699 48.4527 34.8322 48.7151 35.1558 48.7151ZM36.9918 35.2727H43.9482C44.4788 35.2727 44.9387 34.9316 45.0928 34.424L46.5528 29.6135C46.6639 29.2473 46.5969 28.861 46.3689 28.5537C46.141 28.2463 45.7909 28.0701 45.4082 28.0701H44.8885L43.8265 25.4152C43.5824 24.804 42.9994 24.4091 42.3411 24.4091H38.5989C37.9407 24.4091 37.3577 24.804 37.1135 25.4149L36.0515 28.07H35.5318C35.1492 28.07 34.799 28.2462 34.571 28.5537C34.3431 28.8611 34.2761 29.2473 34.3872 29.6135L35.8473 34.424C36.0014 34.9316 36.4613 35.2727 36.9918 35.2727ZM35.5124 29.2516C35.53 29.2277 38.6994 29.2496 38.7221 29.2419C39.0456 29.2419 39.308 28.9795 39.308 28.6559C39.308 28.3323 39.0456 28.07 38.7221 28.07H37.3136L38.2016 25.85C38.2669 25.6866 38.4228 25.5809 38.5989 25.5809H42.3411C42.5172 25.5809 42.6731 25.6866 42.7385 25.8502L43.6264 28.07H41.4564C41.1327 28.07 40.8704 28.3323 40.8704 28.6559C40.8704 28.9795 41.1327 29.2419 41.4564 29.2419C41.476 29.2419 45.4127 29.2314 45.4277 29.2516C45.4451 29.2752 43.9714 34.059 43.9714 34.0837C43.9714 34.1357 36.9717 34.0939 36.9686 34.0837C36.9612 34.0591 35.4949 29.2751 35.5124 29.2516ZM35.1558 54.5604C34.8322 54.5604 34.5699 54.8227 34.5699 55.1463C34.5699 55.4699 34.8322 55.7323 35.1558 55.7323H45.547C45.8706 55.7323 46.1329 55.4699 46.1329 55.1463C46.1329 54.8227 45.8706 54.5604 45.547 54.5604H35.1558ZM50.8204 52.8026C50.8204 52.479 50.5581 52.2166 50.2345 52.2166H35.1558C34.8322 52.2166 34.5699 52.479 34.5699 52.8026C34.5699 53.1262 34.8322 53.3885 35.1558 53.3885H50.2345C50.5581 53.3885 50.8204 53.1262 50.8204 52.8026ZM53.7501 46.5423C54.0738 46.5423 54.336 46.28 54.336 45.9564V23.8231C54.336 22.2077 53.0218 20.8934 51.4064 20.8934H29.5337C27.9182 20.8934 26.604 22.2077 26.604 23.8231V57.9637C26.604 59.5792 27.9182 60.8934 29.5337 60.8934H51.4064C53.0219 60.8934 54.3361 59.5792 54.3361 57.9637V48.6908C54.3361 48.3672 54.0739 48.1048 53.7502 48.1048C53.4265 48.1048 53.1642 48.3672 53.1642 48.6908V57.9637C53.1642 58.933 52.3757 59.7216 51.4064 59.7216H29.5337C28.5644 59.7216 27.7759 58.933 27.7759 57.9637V23.8231C27.7759 22.8538 28.5644 22.0653 29.5337 22.0653H51.4064C52.3757 22.0653 53.1642 22.8538 53.1642 23.8231V45.9564C53.1642 46.28 53.4265 46.5423 53.7501 46.5423ZM32.8394 49.1644C32.5509 49.168 32.2483 49.1709 31.971 49.1723C32.168 48.9048 32.4172 48.5597 32.7279 48.1157C33.0004 47.7264 33.1932 47.374 33.2435 47.0078C33.2517 46.9478 33.2674 46.8401 33.2674 46.7828C33.2674 45.9098 32.5572 45.1995 31.6842 45.1995C30.9293 45.1995 30.276 45.7366 30.1306 46.4766C30.0682 46.7941 30.275 47.1021 30.5926 47.1644C30.9102 47.2268 31.2181 47.02 31.2805 46.7024C31.3181 46.5105 31.4879 46.3714 31.6842 46.3714C31.9012 46.3714 32.0796 46.5403 32.0946 46.7536C32.1094 46.9641 32.002 47.1092 31.7678 47.4437C31.1522 48.3234 30.7849 48.8042 30.5877 49.0625C30.2432 49.5135 30.0786 50.1013 30.6753 50.3002C30.7522 50.3258 32.2989 50.3433 32.8541 50.3362C33.1777 50.3322 33.4367 50.0666 33.4326 49.743C33.4285 49.4194 33.1602 49.1582 32.8394 49.1644ZM50.2345 45.1994H35.1558C34.8322 45.1994 34.5699 45.4618 34.5699 45.7854C34.5699 46.109 34.8322 46.3713 35.1558 46.3713H50.2345C50.5581 46.3713 50.8204 46.109 50.8204 45.7854C50.8204 45.4618 50.5581 45.1994 50.2345 45.1994ZM31.7761 52.2166C31.0213 52.2166 30.3679 52.7537 30.2225 53.4937C30.1602 53.8112 30.367 54.1192 30.6846 54.1816C31.0019 54.2438 31.31 54.0371 31.3724 53.7195C31.4101 53.5277 31.5799 53.3885 31.7761 53.3885C32.003 53.3885 32.1875 53.573 32.1875 53.7999C32.1875 54.0268 32.003 54.2113 31.7761 54.2113C31.4525 54.2113 31.1902 54.4737 31.1902 54.7973C31.1902 55.1209 31.4525 55.3832 31.7761 55.3832C32.003 55.3832 32.1875 55.5677 32.1875 55.7946C32.1875 56.0215 32.003 56.206 31.7761 56.206C31.572 56.206 31.3968 56.0541 31.3687 55.8524C31.366 55.8335 31.3647 55.8141 31.3647 55.7946C31.3647 55.471 31.1024 55.2087 30.7788 55.2087C30.4552 55.2087 30.1928 55.471 30.1928 55.7946C30.1928 56.6552 30.907 57.3779 31.7761 57.3779C32.6492 57.3779 33.3594 56.6677 33.3594 55.7946C33.3594 55.4168 33.226 55.0698 33.0042 54.7973C33.226 54.5248 33.3594 54.1777 33.3594 53.7999C33.3594 52.9269 32.6492 52.2166 31.7761 52.2166ZM31.7761 43.2823C32.0997 43.2823 32.3621 43.02 32.3621 42.6964V38.7987C32.3621 38.4752 32.0997 38.2128 31.7761 38.2128H30.943C30.6194 38.2128 30.3571 38.4752 30.3571 38.7987C30.3571 39.1223 30.6194 39.3847 30.943 39.3847H31.1902V42.6964C31.1902 43.02 31.4525 43.2823 31.7761 43.2823ZM35.1558 41.7284H45.547C45.8706 41.7284 46.1329 41.4661 46.1329 41.1425C46.1329 40.8189 45.8706 40.5566 45.547 40.5566H35.1558C34.8322 40.5566 34.5699 40.8189 34.5699 41.1425C34.5699 41.4661 34.8322 41.7284 35.1558 41.7284ZM50.2345 38.2128H35.1558C34.8322 38.2128 34.5699 38.4752 34.5699 38.7987C34.5699 39.1223 34.8322 39.3847 35.1558 39.3847H50.2345C50.5581 39.3847 50.8204 39.1223 50.8204 38.7987C50.8204 38.4752 50.5581 38.2128 50.2345 38.2128Z" fill="#09A66D"/>
</g>
<defs>
<clipPath id="clip0_6_1941">
<rect width="40" height="40" fill="white" transform="translate(20.4697 20.8934)"/>
</clipPath>
</defs>
</svg>
