<svg width="153" height="24" viewBox="0 0 153 24" fill="none" xmlns="http://www.w3.org/2000/svg">
<g clip-path="url(#clip0_6_1974)">
<path d="M141.425 15.4042L145.522 17.6973L144.607 13.0928L148.053 9.90452L143.391 9.35176L141.425 5.0888V15.4042ZM141.425 17.6153L134.621 21.4238L136.14 13.7758L130.415 8.48161L138.159 7.56322L141.425 0.482422L144.691 7.56322L152.435 8.48161L146.71 13.7758L148.229 21.4238L141.425 17.6153Z" fill="#F1B90B"/>
</g>
<g clip-path="url(#clip1_6_1974)">
<path d="M11.7707 17.6153L4.96678 21.4238L6.48616 13.7758L0.760742 8.48161L8.50429 7.56322L11.7707 0.482422L15.0371 7.56322L22.7807 8.48161L17.0553 13.7758L18.5747 21.4238L11.7707 17.6153Z" fill="#F1B90B"/>
</g>
<g clip-path="url(#clip2_6_1974)">
<path d="M44.1843 17.6153L37.3804 21.4238L38.8997 13.7758L33.1743 8.48161L40.9179 7.56322L44.1843 0.482422L47.4507 7.56322L55.1943 8.48161L49.4688 13.7758L50.9882 21.4238L44.1843 17.6153Z" fill="#F1B90B"/>
</g>
<g clip-path="url(#clip3_6_1974)">
<path d="M76.5974 17.6153L69.7934 21.4238L71.3128 13.7758L65.5874 8.48161L73.3309 7.56322L76.5974 0.482422L79.8638 7.56322L87.6074 8.48161L81.8819 13.7758L83.4013 21.4238L76.5974 17.6153Z" fill="#F1B90B"/>
</g>
<g clip-path="url(#clip4_6_1974)">
<path d="M109.011 17.6153L102.207 21.4238L103.726 13.7758L98.001 8.48161L105.745 7.56322L109.011 0.482422L112.277 7.56322L120.021 8.48161L114.296 13.7758L115.815 21.4238L109.011 17.6153Z" fill="#F1B90B"/>
</g>
<defs>
<clipPath id="clip0_6_1974">
<rect width="23.1525" height="23.1525" fill="white" transform="translate(129.849)"/>
</clipPath>
<clipPath id="clip1_6_1974">
<rect width="23.1525" height="23.1525" fill="white" transform="translate(0.194336)"/>
</clipPath>
<clipPath id="clip2_6_1974">
<rect width="23.1525" height="23.1525" fill="white" transform="translate(32.6079)"/>
</clipPath>
<clipPath id="clip3_6_1974">
<rect width="23.1525" height="23.1525" fill="white" transform="translate(65.021)"/>
</clipPath>
<clipPath id="clip4_6_1974">
<rect width="23.1525" height="23.1525" fill="white" transform="translate(97.4346)"/>
</clipPath>
</defs>
</svg>
