<svg width="41" height="41" viewBox="0 0 41 41" fill="none" xmlns="http://www.w3.org/2000/svg">
<g clip-path="url(#clip0_6_1919)">
<path d="M3.50684 12.5505H9.68637C10.01 12.5505 10.2723 12.2883 10.2723 11.9646C10.2723 11.6409 10.01 11.3787 9.68637 11.3787H3.50684C3.18324 11.3787 2.9209 11.6409 2.9209 11.9646C2.9209 12.2883 3.18316 12.5505 3.50684 12.5505Z" fill="#09A66D"/>
<path d="M9.4743 15.3713H7.0332C6.70961 15.3713 6.44727 15.6336 6.44727 15.9573C6.44727 16.2809 6.70961 16.5432 7.0332 16.5432H9.4743C9.79789 16.5432 10.0602 16.2809 10.0602 15.9573C10.0602 15.6336 9.79789 15.3713 9.4743 15.3713Z" fill="#09A66D"/>
<path d="M1.05566 19.4347H7.03316C7.35676 19.4347 7.6191 19.1724 7.6191 18.8488C7.6191 18.5251 7.35676 18.2628 7.03316 18.2628H1.05566C0.73207 18.2628 0.469727 18.5251 0.469727 18.8488C0.469727 19.1724 0.73207 19.4347 1.05566 19.4347Z" fill="#09A66D"/>
<path d="M10.2723 29.8223C10.2723 29.4986 10.01 29.2363 9.68637 29.2363H3.50684C3.18324 29.2363 2.9209 29.4986 2.9209 29.8223C2.9209 30.1459 3.18324 30.4082 3.50684 30.4082H9.68637C10.01 30.4082 10.2723 30.1459 10.2723 29.8223Z" fill="#09A66D"/>
<path d="M9.4743 25.2438H7.0332C6.70961 25.2438 6.44727 25.506 6.44727 25.8297C6.44727 26.1534 6.70961 26.4156 7.0332 26.4156H9.4743C9.79789 26.4156 10.0602 26.1534 10.0602 25.8297C10.0602 25.506 9.79789 25.2438 9.4743 25.2438Z" fill="#09A66D"/>
<path d="M7.6191 22.9382C7.6191 22.6146 7.35676 22.3523 7.03316 22.3523H1.05566C0.73207 22.3523 0.469727 22.6146 0.469727 22.9382C0.469727 23.2619 0.73207 23.5242 1.05566 23.5242H7.03316C7.35676 23.5242 7.6191 23.2619 7.6191 22.9382Z" fill="#09A66D"/>
<path d="M25.4326 13.849C25.7563 13.849 26.0186 13.5867 26.0186 13.263V12.3687C26.0186 12.045 25.7563 11.7827 25.4326 11.7827C25.1089 11.7827 24.8467 12.045 24.8467 12.3687V13.263C24.8467 13.5867 25.1089 13.849 25.4326 13.849Z" fill="#09A66D"/>
<path d="M31.8754 14.4511C31.6465 14.2224 31.2755 14.2224 31.0467 14.4511L30.4143 15.0835C30.1855 15.3124 30.1855 15.6834 30.4143 15.9122C30.6433 16.141 31.0141 16.1409 31.243 15.9122L31.8754 15.2798C32.1041 15.0509 32.1041 14.68 31.8754 14.4511Z" fill="#09A66D"/>
<path d="M33.0625 20.3075C32.7388 20.3075 32.4766 20.5698 32.4766 20.8934C32.4766 21.2171 32.7388 21.4794 33.0625 21.4794H33.9568C34.2805 21.4794 34.5427 21.2171 34.5427 20.8934C34.5427 20.5698 34.2805 20.3075 33.9568 20.3075H33.0625Z" fill="#09A66D"/>
<path d="M31.243 25.8747C31.0141 25.6459 30.6431 25.6459 30.4143 25.8747C30.1855 26.1036 30.1855 26.4745 30.4143 26.7034L31.0467 27.3358C31.2757 27.5646 31.6466 27.5645 31.8754 27.3358C32.1042 27.1069 32.1042 26.7359 31.8754 26.5071L31.243 25.8747Z" fill="#09A66D"/>
<path d="M24.8467 28.5239V29.4182C24.8467 29.7419 25.1089 30.0042 25.4326 30.0042C25.7563 30.0042 26.0186 29.7419 26.0186 29.4182V28.5239C26.0186 28.2003 25.7563 27.938 25.4326 27.938C25.1089 27.938 24.8467 28.2003 24.8467 28.5239Z" fill="#09A66D"/>
<path d="M19.6234 25.8747L18.991 26.5071C18.7621 26.736 18.7621 27.107 18.991 27.3358C19.2199 27.5646 19.5908 27.5645 19.8195 27.3358L20.452 26.7034C20.6808 26.4745 20.6808 26.1035 20.452 25.8747C20.2232 25.6459 19.8522 25.6459 19.6234 25.8747Z" fill="#09A66D"/>
<path d="M16.9077 20.3075C16.5841 20.3075 16.3218 20.5698 16.3218 20.8934C16.3218 21.2171 16.5841 21.4794 16.9077 21.4794H17.8021C18.1257 21.4794 18.388 21.2171 18.388 20.8934C18.388 20.5698 18.1257 20.3075 17.8021 20.3075H16.9077Z" fill="#09A66D"/>
<path d="M20.452 15.0835L19.8195 14.4511C19.5907 14.2224 19.2197 14.2224 18.991 14.4511C18.7621 14.68 18.7621 15.0509 18.991 15.2798L19.6234 15.9122C19.8523 16.141 20.2232 16.1409 20.452 15.9122C20.6808 15.6834 20.6808 15.3124 20.452 15.0835Z" fill="#09A66D"/>
<path d="M28.5834 20.8935C28.5834 20.5698 28.3211 20.3076 27.9975 20.3076H26.0186V15.9573C26.0186 15.6336 25.7563 15.3713 25.4326 15.3713C25.1089 15.3713 24.8467 15.6336 24.8467 15.9573V20.8935C24.8467 21.2172 25.1089 21.4795 25.4326 21.4795H27.9975C28.3211 21.4795 28.5834 21.2172 28.5834 20.8935Z" fill="#09A66D"/>
<path d="M36.5431 20.7968C36.8661 20.7772 37.1121 20.4994 37.0924 20.1765C36.7197 14.0278 31.5981 9.2113 25.4327 9.2113C18.9911 9.2113 13.7505 14.4519 13.7505 20.8936C13.7505 27.3351 18.9911 32.5758 25.4327 32.5758C31.2037 32.5758 36.128 28.3475 36.9846 22.6416C37.0327 22.3216 36.8122 22.0233 36.4921 21.9752C36.1729 21.9273 35.8738 22.1476 35.8257 22.4677C35.0562 27.5938 30.6299 31.404 25.4327 31.404C19.6373 31.404 14.9224 26.689 14.9224 20.8936C14.9224 15.0983 19.6373 10.3833 25.4327 10.3833C30.9796 10.3833 35.5874 14.7161 35.9227 20.2476C35.9422 20.5704 36.2197 20.8155 36.5431 20.7968Z" fill="#09A66D"/>
<path d="M25.4334 5.85669C23.3723 5.85669 21.353 6.28427 19.4945 7.08388H9.15625C8.83266 7.08388 8.57031 7.34614 8.57031 7.66981C8.57031 7.99349 8.83266 8.25575 9.15625 8.25575H17.2901C16.1903 8.96356 15.1779 9.81732 14.2852 10.8029C14.068 11.0427 14.0863 11.4133 14.3262 11.6305C14.5661 11.8478 14.9365 11.8294 15.1538 11.5896C17.779 8.69099 21.5258 7.02856 25.4334 7.02856C33.0785 7.02856 39.2984 13.2483 39.2984 20.8935C39.2984 28.5386 33.0786 34.7584 25.4334 34.7584C17.7882 34.7584 11.5684 28.5386 11.5684 20.8935C11.5684 18.2163 12.3332 15.6179 13.7799 13.379C13.9555 13.1072 13.8776 12.7445 13.6058 12.5689C13.334 12.3933 12.9713 12.4711 12.7956 12.743C11.2261 15.1718 10.3966 17.9901 10.3966 20.8935C10.3966 26.1877 13.147 30.8511 17.2938 33.5312H9.15633C8.83273 33.5312 8.57039 33.7935 8.57039 34.1172C8.57039 34.4408 8.83273 34.7031 9.15633 34.7031H19.4864C21.3114 35.4921 23.3221 35.9303 25.4334 35.9303C33.7247 35.9303 40.4702 29.1848 40.4702 20.8935C40.4702 12.6022 33.7247 5.85669 25.4334 5.85669Z" fill="#09A66D"/>
</g>
<defs>
<clipPath id="clip0_6_1919">
<rect width="40" height="40" fill="white" transform="translate(0.469727 0.893433)"/>
</clipPath>
</defs>
</svg>
