<svg width="56" height="56" viewBox="0 0 56 56" fill="none" xmlns="http://www.w3.org/2000/svg">
<circle cx="28" cy="28" r="28" fill="#F3FBF8"/>
<path d="M34.4722 22H35.9217C37.1292 22 38.1392 21.1395 38.3712 20H36.9217C35.7147 20 34.7047 20.8605 34.4722 22Z" fill="#09A66D"/>
<path d="M23 17.5C23.0495 17.5 23.0975 17.506 23.147 17.5075L23.498 13.9975C23.5 13.703 23.297 13.5 23.0475 13.5H22.953C22.703 13.5 22.5 13.703 22.5 13.9525L22.8535 17.5075C22.9025 17.506 22.9505 17.5 23 17.5Z" fill="#09A66D"/>
<path d="M19 28C19 27.8295 19.0175 27.663 19.045 27.5H18V27.8425C18.3745 28.021 18.713 28.262 19 28.555V28Z" fill="#09A66D"/>
<path d="M18.595 15.778L20.3055 18.296C20.4395 18.2095 20.578 18.1295 20.7205 18.056L19.692 15.2275C19.6845 15.2075 19.677 15.189 19.6675 15.171C19.597 15.03 19.485 14.9325 19.3455 14.8865C19.206 14.84 19.0575 14.851 18.927 14.9165L18.802 14.979C18.5315 15.114 18.4215 15.444 18.557 15.7145C18.568 15.7345 18.581 15.757 18.595 15.778Z" fill="#09A66D"/>
<path d="M20.691 26.5H26.26L26.916 23.352C26.9715 23.084 27 22.8095 27 22.536C27 20.2945 25.2055 18.5 23 18.5C20.7945 18.5 19 20.2945 19 22.5C19 22.8095 19.0285 23.084 19.084 23.352L19.662 26.125C20.212 25.44 21.055 25 22 25V26C21.4975 26 21.043 26.1925 20.691 26.5ZM24.5 20.5H25.5V21.5H24.5V20.5ZM24.5 22.5H25.5V23.5H24.5V22.5ZM24.5 24.5H25.5V25.5H24.5V24.5Z" fill="#09A66D"/>
<path d="M17.5003 30.5H18.9498C18.7173 29.3605 17.7078 28.5 16.5003 28.5H15.0508C15.2828 29.6395 16.2928 30.5 17.5003 30.5Z" fill="#09A66D"/>
<path d="M27.4055 15.7765C27.4185 15.7565 27.432 15.7345 27.443 15.712C27.5775 15.4435 27.4675 15.1135 27.197 14.9785L27.072 14.916C26.941 14.851 26.7935 14.8395 26.6535 14.886C26.5145 14.9325 26.4021 15.03 26.3366 15.161C26.3226 15.189 26.3146 15.2075 26.3076 15.2265L25.2791 18.055C25.4216 18.1285 25.5601 18.2085 25.6946 18.295L27.4055 15.7765Z" fill="#09A66D"/>
<path d="M26.4922 36.5H40.5002V33.5H25.8262C26.2677 34.4285 26.4917 35.449 26.4922 36.5ZM38.5002 34.5H39.5002V35.5H38.5002V34.5Z" fill="#09A66D"/>
<path d="M25.2317 40.5H39.0002C39.8272 40.5 40.5002 39.827 40.5002 39V37.5H26.4282C26.2687 38.6015 25.8477 39.623 25.2317 40.5ZM38.5002 38.5H39.5002V39.5H38.5002V38.5Z" fill="#09A66D"/>
<path d="M20.071 27.5C20.029 27.661 20 27.8265 20 28V28.5H40.5H41H42.5V27.5H20.071Z" fill="#09A66D"/>
<path d="M20 30.9335C20.1005 30.909 20.201 30.8835 20.2925 30.844C21.8175 30.1915 23.5925 30.5835 24.7055 31.821C24.8995 32.0365 25.0735 32.2655 25.237 32.4995H40.5V29.4995H20V30.9335ZM38.5 30.5H39.5V31.5H38.5V30.5Z" fill="#09A66D"/>
<path d="M23.9625 32.49C23.1485 31.585 21.801 31.2855 20.686 31.7635C20.4715 31.855 20.2395 31.918 20 31.9565V32.898C20.4965 32.713 20.968 32.3235 21.147 32.1455L21.8535 32.8535C21.7365 32.971 20.6735 34 19.5 34C18.3265 34 17.2635 32.971 17.1465 32.8535L17.853 32.1455C18.032 32.323 18.5035 32.7125 19 32.898V31.5H17.5C17.3305 31.5 17.1655 31.484 17.0025 31.4605C16.3015 31.5105 15.5605 31.9025 15.0145 32.5155C14.038 33.614 13.5 35.0285 13.5 36.5C13.5 38.1465 14.154 39.682 15.3405 40.824C16.527 41.9655 18.08 42.555 19.739 42.4955C22.8295 42.376 25.3575 39.862 25.4945 36.7725C25.564 35.187 25.02 33.666 23.9625 32.49ZM19.5 41.5C16.743 41.5 14.5 39.257 14.5 36.5H15.5C15.5 38.7055 17.2945 40.5 19.5 40.5V41.5Z" fill="#09A66D"/>
<path d="M38.3855 26.5C38.1465 25.571 37.69 24.7115 37.041 23.99C36.2265 23.085 34.879 22.7865 33.764 23.2635C33.679 23.3 33.59 23.3305 33.5 23.359V19C33.5 18.173 34.173 17.5 35 17.5H35.5V16.5H35C33.6215 16.5 32.5 17.6215 32.5 19V23.359C32.41 23.3305 32.321 23.3 32.236 23.2635C31.1215 22.7865 29.7735 23.085 28.959 23.99C28.31 24.7115 27.8535 25.5705 27.6145 26.5H33H38.3855ZM30.7535 24.069C30.761 24.073 31.518 24.5 33 24.5C34.482 24.5 35.239 24.073 35.2465 24.069L35.757 24.9285C35.7185 24.952 34.7845 25.5 33 25.5C31.2155 25.5 30.2815 24.952 30.2425 24.9285L30.7535 24.069Z" fill="#09A66D"/>
</svg>
